<svg width="24" height="25" viewBox="0 0 24 25" fill="none" xmlns="http://www.w3.org/2000/svg">
<g clip-path="url(#clip0_7150_11664)">
<path d="M2.05996 10.917C2.56996 11.427 3.37996 11.477 3.92996 11.017C8.59996 7.17695 15.38 7.17695 20.06 11.007C20.62 11.467 21.44 11.427 21.95 10.917C22.54 10.327 22.5 9.34695 21.85 8.81695C16.14 4.14695 7.87996 4.14695 2.15996 8.81695C1.50996 9.33695 1.45996 10.317 2.05996 10.917ZM9.81996 18.677L11.29 20.147C11.68 20.537 12.31 20.537 12.7 20.147L14.17 18.677C14.64 18.207 14.54 17.397 13.94 17.087C12.72 16.457 11.26 16.457 10.03 17.087C9.45996 17.397 9.34996 18.207 9.81996 18.677ZM6.08996 14.947C6.57996 15.437 7.34996 15.487 7.91996 15.077C10.36 13.347 13.64 13.347 16.08 15.077C16.65 15.477 17.42 15.437 17.91 14.947L17.92 14.937C18.52 14.337 18.48 13.317 17.79 12.827C14.35 10.337 9.65996 10.337 6.20996 12.827C5.51996 13.327 5.47996 14.337 6.08996 14.947Z" fill="black"/>
</g>
<defs>
<clipPath id="clip0_7150_11664">
<rect width="24" height="24" fill="white" transform="translate(0 0.857422)"/>
</clipPath>
</defs>
</svg>
