<svg width="37" height="37" viewBox="0 0 37 37" fill="none" xmlns="http://www.w3.org/2000/svg">
<path d="M16.9583 7.70829H20.0416M29.2916 18.5C28.2634 26.7217 25.6949 30.8333 21.5833 30.8333H15.4166C11.305 30.8333 8.7366 26.7217 7.70831 18.5M18.5 27.75V30.8333M15.4166 16.9583V16.9737M21.5833 16.9583V16.9737M16.9583 24.6666C16.9583 25.6949 17.4717 26.2083 18.5 26.2083C19.5283 26.2083 20.0416 25.6949 20.0416 24.6666H16.9583ZM7.70833 6.16663L16.9583 7.66204L7.34141 17.9727C7.07126 18.2763 6.69413 18.4637 6.28896 18.4956C5.8838 18.5275 5.482 18.4015 5.16766 18.1438C4.95448 17.9704 4.79423 17.7406 4.70511 17.4806C4.616 17.2206 4.60159 16.9408 4.66354 16.6731L7.70833 6.16663ZM29.2916 6.16663L20.0416 7.66204L29.6586 17.9727C30.2105 18.6017 31.1833 18.6788 31.8323 18.1438C32.0455 17.9704 32.2057 17.7406 32.2949 17.4806C32.384 17.2206 32.3984 16.9408 32.3364 16.6731L29.2916 6.16663Z" stroke="#272D37" stroke-width="2" stroke-linecap="round" stroke-linejoin="round"/>
</svg>
