<svg width="16" height="21" viewBox="0 0 16 21" fill="none" xmlns="http://www.w3.org/2000/svg">
<path d="M15 17.8574C15 18.9651 14.1078 19.8574 13 19.8574C14.1023 19.8574 15 18.9597 15 17.8574ZM15 17.8574C15 16.7497 14.1078 15.8574 13 15.8574C14.1023 15.8574 15 16.7551 15 17.8574ZM10.8658 17.8574H10.8815L11.0656 17.349C11.0228 17.5114 11 17.6818 11 17.8574C11 18.1135 11.0485 18.3584 11.1367 18.5837C11.1266 18.5593 11.1169 18.5347 11.1077 18.5098L10.8658 17.8574ZM1.99453 19.8625L1.99244 19.8612L1.98974 19.8653L1.99185 19.8667L2.83004 20.4074L1.99453 19.8625ZM10.0497 13.7695L10.0759 13.8101C10.0748 13.811 10.0736 13.8118 10.0725 13.8127L9.7086 13.2526L9.36258 12.72L8.7334 12.8068C8.48825 12.8406 8.2439 12.8574 8.00004 12.8574C7.75618 12.8574 7.51183 12.8406 7.26668 12.8068L6.63781 12.7201L6.58092 12.8075L5.52384 12.3271C3.73543 11.5141 2.41099 9.8487 2.08047 7.85762C2.0805 7.85761 2.08054 7.85759 2.08057 7.85758C2.0807 7.85752 2.08082 7.85746 2.08091 7.85742H2.09538H2.11081H2.12633H2.14194H2.15764H2.17344H2.18932H2.20529H2.22135H2.2375H2.25373H2.27006H2.28647H2.30297H2.31956H2.33623H2.35299H2.36983H2.38676H2.40378H2.42088H2.43806H2.45533H2.47268H2.49011H2.50763H2.52523H2.54291H2.56067H2.57852H2.59644H2.61445H2.63253H2.6507H2.66895H2.68727H2.70568H2.72416H2.74272H2.76136H2.78007H2.79887H2.81774H2.83668H2.85571H2.8748H2.89398H2.91322H2.93255H2.95194H2.97142H2.99096H3.01058H3.03027H3.05003H3.06986H3.08977H3.10975H3.1298H3.14992H3.17011H3.19037H3.21069H3.23109H3.25156H3.2721H3.2927H3.31337H3.33411H3.35492H3.37579H3.39673H3.41773H3.4388H3.45994H3.48114H3.5024H3.52373H3.54513H3.56658H3.5881H3.60969H3.63133H3.65304H3.67481H3.69664H3.71853H3.74048H3.76249H3.78456H3.80669H3.82888H3.85113H3.87344H3.8958H3.91823H3.94071H3.96324H3.98584H4.00849H4.0312H4.05396H4.07678H4.09965H4.12257H4.14555H4.16859H4.19168H4.21482H4.23801H4.26126H4.28456H4.30791H4.33131H4.35476H4.37826H4.40181H4.42542H4.44907H4.47277H4.49652H4.52032H4.54416H4.56806H4.592H4.61599H4.64002H4.6641H4.68823H4.7124H4.73662H4.76088H4.78519H4.80954H4.83393H4.85837H4.88285H4.90738H4.93194H4.95655H4.9812H5.00589H5.03062H5.05539H5.08021H5.10506H5.12995H5.15488H5.17985H5.20486H5.2299H5.25499H5.28011H5.30527H5.33046H5.35569H5.38096H5.40626H5.4316H5.45697H5.48237H5.50781H5.53329H5.55879H5.58433H5.60991H5.63551H5.66115H5.68682H5.71252H5.73825H5.76401H5.7898H5.81562H5.84147H5.86735H5.89326H5.9192H5.94516H5.97115H5.99717H6.02322H6.04929H6.07539H6.10151H6.12766H6.15384H6.18004H6.20626H6.23251H6.25878H6.28508H6.3114H6.33774H6.3641H6.39048H6.41689H6.44332H6.46977H6.49624H6.52272H6.54923H6.57576H6.60231H6.62887H6.65546H6.68206H6.70868H6.73531H6.76197H6.78864H6.81532H6.84203H6.86874H6.89547H6.92222H6.94898H6.97576H7.00255H7.02935H7.05616H7.08299H7.10983H7.13668H7.16355H7.19042H7.21731H7.2442H7.27111H7.29802H7.32495H7.35188H7.37882H7.40577H7.43273H7.4597H7.48667H7.51365H7.54063H7.56763H7.59462H7.62163H7.64864H7.67565H7.70267H7.72969H7.75671H7.78374H7.81077H7.83781H7.86484H7.89188H7.91892H7.94596H7.973H8.00004H8.02708H8.05412H8.08116H8.1082H8.13524H8.16227H8.1893H8.21634H8.24336H8.27039H8.29741H8.32443H8.35144H8.37845H8.40545H8.43245H8.45944H8.48643H8.51341H8.54038H8.56735H8.5943H8.62125H8.6482H8.67513H8.70205H8.72897H8.75588H8.78277H8.80966H8.83653H8.86339H8.89024H8.91708H8.94391H8.97073H8.99753H9.02432H9.05109H9.07786H9.1046H9.13133H9.15805H9.18475H9.21144H9.23811H9.26476H9.2914H9.31802H9.34462H9.3712H9.39777H9.42432H9.45084H9.47735H9.50384H9.53031H9.55676H9.58319H9.60959H9.63598H9.66234H9.68868H9.715H9.74129H9.76757H9.79381H9.82004H9.84624H9.87241H9.89856H9.92469H9.95079H9.97686H10.0029H10.0289H10.0549H10.0809H10.1068H10.1327H10.1586H10.1845H10.2103H10.2361H10.2618H10.2876H10.3133H10.3389H10.3646H10.3902H10.4157H10.4413H10.4668H10.4923H10.5177H10.5431H10.5685H10.5938H10.6191H10.6444H10.6696H10.6948H10.72H10.7451H10.7702H10.7952H10.8202H10.8452H10.8701H10.895H10.9199H10.9447H10.9695H10.9942H11.0189H11.0435H11.0681H11.0927H11.1172H11.1417H11.1661H11.1905H11.2149H11.2392H11.2635H11.2877H11.3118H11.336H11.3601H11.3841H11.4081H11.432H11.4559H11.4798H11.5036H11.5273H11.551H11.5747H11.5983H11.6218H11.6453H11.6688H11.6922H11.7155H11.7388H11.7621H11.7853H11.8084H11.8315H11.8545H11.8775H11.9004H11.9233H11.9461H11.9689H11.9916H12.0142H12.0368H12.0594H12.0819H12.1043H12.1266H12.1489H12.1712H12.1934H12.2155H12.2376H12.2596H12.2816H12.3034H12.3253H12.347H12.3687H12.3904H12.412H12.4335H12.455H12.4763H12.4977H12.5189H12.5401H12.5613H12.5823H12.6033H12.6243H12.6452H12.666H12.6867H12.7074H12.728H12.7485H12.769H12.7894H12.8097H12.83H12.8502H12.8703H12.8903H12.9103H12.9302H12.95H12.9698H12.9895H13.0091H13.0287H13.0481H13.0675H13.0869H13.1061H13.1253H13.1444H13.1634H13.1823H13.2012H13.22H13.2387H13.2574H13.2759H13.2944H13.3128H13.3311H13.3494H13.3675H13.3856H13.4036H13.4216H13.4394H13.4572H13.4748H13.4924H13.51H13.5274H13.5448H13.562H13.5792H13.5963H13.6133H13.6302H13.6471H13.6638H13.6805H13.6971H13.7136H13.73H13.7463H13.7626H13.7787H13.7948H13.8108H13.8266H13.8424H13.8581H13.8737H13.8893H13.9047H13.918C13.5845 9.8461 12.27 11.5056 10.4779 12.3163L9.42071 12.7946L10.0497 13.7695Z" fill="black" stroke="black" stroke-width="2"/>
<path d="M5.50001 5.32742C5.48001 5.60742 5.68001 5.85742 5.96001 5.85742H6.00001C6.24001 5.85742 6.44001 5.67742 6.46001 5.43742C6.56001 4.56742 6.50001 4.04742 5.52001 2.89742C5.16001 2.46742 4.92001 2.20742 4.99001 1.34742C5.02001 1.08742 4.80001 0.857422 4.53001 0.857422H4.48001C4.24001 0.857422 4.03001 1.04742 4.01001 1.28742C3.93001 2.21742 4.21001 3.02742 4.96001 3.81742C5.15001 4.02742 5.60001 4.37742 5.50001 5.32742Z" fill="black"/>
<path d="M7.98999 5.32742C7.95999 5.60742 8.16999 5.85742 8.44999 5.85742H8.47999C8.71999 5.85742 8.91999 5.67742 8.93999 5.43742C9.03999 4.56742 8.97999 4.04742 7.99999 2.89742C7.63999 2.46742 7.38999 2.20742 7.46999 1.34742C7.49999 1.08742 7.27999 0.857422 7.00999 0.857422H6.95999C6.71999 0.857422 6.50999 1.04742 6.48999 1.28742C6.40999 2.21742 6.68999 3.02742 7.43999 3.81742C7.62999 4.02742 8.07999 4.37742 7.98999 5.32742Z" fill="black"/>
<path d="M10.5 5.32742C10.48 5.60742 10.68 5.85742 10.96 5.85742H11C11.24 5.85742 11.44 5.67742 11.46 5.43742C11.56 4.56742 11.5 4.04742 10.52 2.89742C10.16 2.46742 9.91001 2.20742 9.99001 1.34742C10.02 1.08742 9.80001 0.857422 9.53001 0.857422H9.48001C9.24001 0.857422 9.03001 1.04742 9.01001 1.28742C8.93001 2.21742 9.21001 3.02742 9.96001 3.81742C10.15 4.02742 10.6 4.37742 10.5 5.32742Z" fill="black"/>
</svg>
