<svg width="12" height="17" viewBox="0 0 12 17" fill="none" xmlns="http://www.w3.org/2000/svg">
<path d="M6.00002 0.524414C2.77502 0.524414 0.166687 3.13275 0.166687 6.35775C0.166687 9.83275 3.85002 14.6244 5.36669 16.4494C5.70002 16.8494 6.30835 16.8494 6.64169 16.4494C8.15002 14.6244 11.8334 9.83275 11.8334 6.35775C11.8334 3.13275 9.22502 0.524414 6.00002 0.524414ZM6.00002 8.44108C4.85002 8.44108 3.91669 7.50775 3.91669 6.35775C3.91669 5.20775 4.85002 4.27441 6.00002 4.27441C7.15002 4.27441 8.08335 5.20775 8.08335 6.35775C8.08335 7.50775 7.15002 8.44108 6.00002 8.44108Z" fill="black"/>
</svg>
