<svg width="22" height="17" viewBox="0 0 22 17" fill="none" xmlns="http://www.w3.org/2000/svg">
<path d="M11 4.85742C11 6.51428 9.65685 7.85742 8 7.85742C6.34315 7.85742 5 6.51428 5 4.85742C5 3.20057 6.34315 1.85742 8 1.85742C9.65685 1.85742 11 3.20057 11 4.85742Z" fill="black" stroke="black" stroke-width="2"/>
<path d="M8 10.8574C5.33 10.8574 0 12.1974 0 14.8574V15.8574C0 16.4074 0.45 16.8574 1 16.8574H15C15.55 16.8574 16 16.4074 16 15.8574V14.8574C16 12.1974 10.67 10.8574 8 10.8574Z" fill="black"/>
<path d="M19 6.85742V3.85742H17V6.85742H14V8.85742H17V11.8574H19V8.85742H22V6.85742H19Z" fill="black"/>
</svg>
