<svg width="24" height="25" viewBox="0 0 24 25" fill="none" xmlns="http://www.w3.org/2000/svg">
<g clip-path="url(#clip0_7150_11659)">
<path d="M18.92 6.86742C18.72 6.27742 18.16 5.85742 17.5 5.85742H6.5C5.84 5.85742 5.29 6.27742 5.08 6.86742L3.11 12.5374C3.04 12.7474 3 12.9674 3 13.1974V20.3574C3 21.1874 3.67 21.8574 4.5 21.8574C5.33 21.8574 6 21.1874 6 20.3574V19.8574H18V20.3574C18 21.1774 18.67 21.8574 19.5 21.8574C20.32 21.8574 21 21.1874 21 20.3574V13.1974C21 12.9774 20.96 12.7474 20.89 12.5374L18.92 6.86742ZM6.5 16.8574C5.67 16.8574 5 16.1874 5 15.3574C5 14.5274 5.67 13.8574 6.5 13.8574C7.33 13.8574 8 14.5274 8 15.3574C8 16.1874 7.33 16.8574 6.5 16.8574ZM17.5 16.8574C16.67 16.8574 16 16.1874 16 15.3574C16 14.5274 16.67 13.8574 17.5 13.8574C18.33 13.8574 19 14.5274 19 15.3574C19 16.1874 18.33 16.8574 17.5 16.8574ZM5 11.8574L6.27 8.03742C6.41 7.63742 6.79 7.35742 7.22 7.35742H16.78C17.21 7.35742 17.59 7.63742 17.73 8.03742L19 11.8574H5Z" fill="black"/>
</g>
<defs>
<clipPath id="clip0_7150_11659">
<rect width="24" height="24" fill="white" transform="translate(0 0.857422)"/>
</clipPath>
</defs>
</svg>
