<svg width="37" height="37" viewBox="0 0 37 37" fill="none" xmlns="http://www.w3.org/2000/svg">
<path d="M29.2918 10.7916L27.7502 12.3333M23.1252 16.9583H24.6668C25.4846 16.9583 26.2688 17.2831 26.8471 17.8614C27.4253 18.4396 27.7502 19.2239 27.7502 20.0416V24.6666C27.7502 25.2799 27.9938 25.8681 28.4275 26.3018C28.8612 26.7355 29.4493 26.9791 30.0627 26.9791C30.676 26.9791 31.2642 26.7355 31.6978 26.3018C32.1315 25.8681 32.3752 25.2799 32.3752 24.6666V13.875L27.7502 9.24996M7.7085 30.8333V9.24996C7.7085 8.43221 8.03335 7.64795 8.61158 7.06971C9.18982 6.49148 9.97408 6.16663 10.7918 6.16663H20.0418C20.8596 6.16663 21.6438 6.49148 22.2221 7.06971C22.8003 7.64795 23.1252 8.43221 23.1252 9.24996V30.8333" stroke="#272D37" stroke-width="2" stroke-linecap="round" stroke-linejoin="round"/>
<path d="M15.4167 17.7291L13.1042 21.5833H17.7292L15.4167 25.4374M6.16675 30.8333H24.6667M7.70841 12.3333H23.1251" stroke="#272D37" stroke-width="2" stroke-linecap="round" stroke-linejoin="round"/>
</svg>
