<svg width="37" height="37" viewBox="0 0 37 37" fill="none" xmlns="http://www.w3.org/2000/svg">
<path d="M32.8888 20.0416C31.0123 19.2647 27.5348 16.1875 21.4159 20.8123C19.8075 19.9058 16.8268 17.7292 12.2377 21.5831C11.7015 19.3819 11.5943 14.3713 12.2377 10.0206C12.5057 9.37318 13.61 8.91484 16.8268 12.3332L20.6511 8.47909C20.383 6.79576 18.3565 4.625 12.2377 4.625C9.94308 4.625 7.84867 6.6024 6.88365 10.0207C5.67735 13.5168 3.82422 21.5832 3.82422 26.2082C3.82421 27.6325 5.73636 30.8333 13.0025 30.8333C14.5322 30.8333 19.0068 31.0068 24.4754 28.5207L29.0645 32.3748" stroke="#272D37" stroke-width="2" stroke-linecap="round" stroke-linejoin="round"/>
</svg>
