<svg width="78" height="86" viewBox="0 0 78 86" fill="none" xmlns="http://www.w3.org/2000/svg">
<path d="M48.5308 85.8373C64.2546 85.8373 77.0026 73.0893 77.0026 57.3655V43.6041V43.5237L57.941 31.8615V57.3655C57.941 62.5532 53.7185 66.7757 48.5308 66.7757C47.9946 66.7757 47.4718 66.7221 46.9624 66.6148C46.9088 66.6148 46.8552 66.6148 46.8016 66.6148C46.748 66.6148 46.6943 66.6014 46.6407 66.5746C46.5871 66.5746 46.5335 66.5612 46.4799 66.5344C46.4531 66.5344 46.4128 66.521 46.3592 66.4942C46.3056 66.4942 46.252 66.4808 46.1984 66.454C46.1447 66.454 46.0911 66.4405 46.0375 66.4137C45.9839 66.4137 45.9437 66.4003 45.9169 66.3735C45.8632 66.3735 45.8096 66.3735 45.756 66.3735C45.7024 66.3467 45.6488 66.3199 45.5951 66.2931C45.5683 66.2931 45.5281 66.2797 45.4745 66.2529C45.4209 66.2261 45.3806 66.2127 45.3538 66.2127C45.3002 66.1859 45.2466 66.1725 45.193 66.1725C45.1394 66.1457 45.0992 66.1188 45.0724 66.092C45.0187 66.092 44.9651 66.0786 44.9115 66.0518C44.8847 66.025 44.8445 66.0116 44.7909 66.0116C44.7372 65.9848 44.697 65.958 44.6702 65.9312C44.6166 65.9044 44.5764 65.891 44.5495 65.891C44.4959 65.8641 44.4557 65.8373 44.4289 65.8105C44.3753 65.7837 44.3217 65.7703 44.2681 65.7703C44.2413 65.7435 44.201 65.7167 44.1474 65.6899C44.1206 65.6631 44.0804 65.6363 44.0268 65.6095C44 65.6095 43.9598 65.5961 43.9061 65.5693C43.8793 65.5424 43.8391 65.5156 43.7855 65.4888C43.7587 65.462 43.7185 65.4352 43.6649 65.4084C43.638 65.3816 43.6112 65.3548 43.5844 65.328C43.5308 65.328 43.4906 65.3146 43.4638 65.2877C43.4102 65.2609 43.3699 65.2341 43.3431 65.2073C43.2895 65.1805 43.2493 65.1537 43.2225 65.1269C43.1957 65.1001 43.1555 65.0733 43.1018 65.0465C43.075 65.0197 43.0482 64.9928 43.0214 64.966C42.9678 64.9392 42.9276 64.9124 42.9008 64.8856C42.874 64.8588 42.8338 64.832 42.7801 64.8052C42.7533 64.7784 42.7265 64.7515 42.6997 64.7247C42.6461 64.6979 42.6059 64.6711 42.5791 64.6443C42.5522 64.6175 42.512 64.5907 42.4584 64.5639C42.4316 64.5371 42.4048 64.5103 42.378 64.4835C42.3512 64.4566 42.3244 64.4164 42.2976 64.3628C42.2439 64.336 42.2037 64.3092 42.1769 64.2824C42.1501 64.2556 42.1233 64.2288 42.0965 64.202C42.0429 64.1751 42.0027 64.1483 41.9758 64.1215C40.2064 62.3923 39.1206 60.0196 39.1206 57.3655V22.9741V22.8936L20.059 11.2314L0.997314 22.8936V37.4915H1.19839H20.059V37.6926V37.8936V38.0545V38.2556V38.4566V38.6175V38.8186V39.0196V39.1805V39.3816V39.5826V39.7837V39.9446V40.1456V40.3467V40.5076V40.7086V40.9097V41.0706V41.2716V41.4727V41.6336V41.8346V42.0357V42.1966V42.3976V42.5987V42.7596V42.9606V43.1617V43.3226V43.5237V43.7247V43.8856V44.0866V44.2877V44.4486V44.6496V44.8507V45.0116V45.2126V57.3655C20.059 65.2877 23.2761 72.4057 28.504 77.5934C33.6515 82.7006 40.7292 85.8373 48.5308 85.8373Z" fill="white"/>
<path d="M39.1213 21.8304V12.4058L20.061 0.162109V10.2084L39.1213 21.8304Z" fill="white"/>
</svg>
