<svg width="24" height="25" viewBox="0 0 24 25" fill="none" xmlns="http://www.w3.org/2000/svg">
<g clip-path="url(#clip0_7150_11717)">
<path d="M7 8.85742C8.10457 8.85742 9 7.96199 9 6.85742C9 5.75285 8.10457 4.85742 7 4.85742C5.89543 4.85742 5 5.75285 5 6.85742C5 7.96199 5.89543 8.85742 7 8.85742Z" fill="black"/>
<path d="M6 13.8574V12.8574V12.1074C6 11.4197 6.56228 10.8574 7.25 10.8574H7.28C7.44545 10.8574 7.62743 10.9021 7.80525 10.988L7.81306 10.9917L7.82094 10.9954C7.97053 11.0644 8.09717 11.1575 8.18819 11.258C8.18828 11.2581 8.18837 11.2582 8.18846 11.2583L9.58463 12.8041C9.87648 13.1332 10.217 13.4215 10.5713 13.6729L10.8312 13.8574H11.15H14M6 13.8574H5H3V20.8574C3 21.4051 3.45228 21.8574 4 21.8574H6M6 13.8574C4.89772 13.8574 4 14.7551 4 15.8574V19.8574C4 20.9597 4.89771 21.8574 6 21.8574M6 13.8574C7.10228 13.8574 8 14.7551 8 15.8574C8 14.7551 8.89772 13.8574 10 13.8574C11.1023 13.8574 12 14.7551 12 15.8574C12 14.7551 12.8977 13.8574 14 13.8574M6 21.8574H10M6 21.8574C7.10229 21.8574 8 20.9597 8 19.8574C8 20.9597 8.89771 21.8574 10 21.8574M10 21.8574H14M10 21.8574C11.1023 21.8574 12 20.9597 12 19.8574C12 20.9597 12.8977 21.8574 14 21.8574M14 21.8574H18M14 21.8574C15.1023 21.8574 16 20.9597 16 19.8574C16 20.9597 16.8977 21.8574 18 21.8574M18 21.8574H20C20.5477 21.8574 21 21.4051 21 20.8574V13.8574H18M18 21.8574C19.1023 21.8574 20 20.9597 20 19.8574V15.8574C20 14.7551 19.1023 13.8574 18 13.8574M18 13.8574H14M18 13.8574C16.8977 13.8574 16 14.7551 16 15.8574C16 14.7551 15.1023 13.8574 14 13.8574" fill="black" stroke="black" stroke-width="2"/>
</g>
<defs>
<clipPath id="clip0_7150_11717">
<rect width="24" height="24" fill="white" transform="translate(0 0.857422)"/>
</clipPath>
</defs>
</svg>
