<svg width="24" height="25" viewBox="0 0 24 25" fill="none" xmlns="http://www.w3.org/2000/svg">
<g clip-path="url(#clip0_7150_11692)">
<path d="M5 8.85742H7V16.8574H5V8.85742ZM12 8.85742H9C8.45 8.85742 8 9.30742 8 9.85742V15.8574C8 16.4074 8.45 16.8574 9 16.8574H12C12.55 16.8574 13 16.4074 13 15.8574V9.85742C13 9.30742 12.55 8.85742 12 8.85742ZM11 14.8574H10V10.8574H11V14.8574ZM18 8.85742H15C14.45 8.85742 14 9.30742 14 9.85742V15.8574C14 16.4074 14.45 16.8574 15 16.8574H18C18.55 16.8574 19 16.4074 19 15.8574V9.85742C19 9.30742 18.55 8.85742 18 8.85742ZM17 14.8574H16V10.8574H17V14.8574Z" fill="black"/>
<path d="M5 7.85742H19V17.8574H5V7.85742Z" stroke="black" stroke-width="2"/>
<path d="M2 4.85742V20.8574H22V4.85742H2ZM4 18.8574V6.85742H20V18.8574H4Z" fill="black"/>
</g>
<defs>
<clipPath id="clip0_7150_11692">
<rect width="24" height="24" fill="white" transform="translate(0 0.857422)"/>
</clipPath>
</defs>
</svg>
