<svg width="24" height="25" viewBox="0 0 24 25" fill="none" xmlns="http://www.w3.org/2000/svg">
<g clip-path="url(#clip0_7150_11675)">
<path d="M22 11.8574V13.8574H9V9.85742C9 8.75742 9.9 7.85742 11 7.85742H18C20.21 7.85742 22 9.64742 22 11.8574ZM2 15.8574C2 16.4074 2.45 16.8574 3 16.8574H8V17.8574C8 18.4074 8.45 18.8574 9 18.8574H15C15.55 18.8574 16 18.4074 16 17.8574V16.8574H21C21.55 16.8574 22 16.4074 22 15.8574C22 15.3074 21.55 14.8574 21 14.8574H3C2.45 14.8574 2 15.3074 2 15.8574ZM7.14 12.9574C8.3 11.7674 8.28 9.87742 7.1 8.71742C5.91 7.55742 4.02 7.57742 2.86 8.75742C1.7 9.94742 1.72 11.8374 2.9 12.9974C4.09 14.1574 5.98 14.1374 7.14 12.9574Z" fill="black"/>
</g>
<defs>
<clipPath id="clip0_7150_11675">
<rect width="24" height="24" fill="white" transform="translate(0 0.857422)"/>
</clipPath>
</defs>
</svg>
