<svg width="37" height="37" viewBox="0 0 37 37" fill="none" xmlns="http://www.w3.org/2000/svg">
<g clip-path="url(#clip0_1_8438)">
<path d="M15.4166 9.25V7.70833C15.4166 6.89058 15.7414 6.10632 16.3197 5.52809C16.8979 4.94985 17.6822 4.625 18.4999 4.625C19.3177 4.625 20.1019 4.94985 20.6802 5.52809C21.2584 6.10632 21.5833 6.89058 21.5833 7.70833V9.25M13.8749 32.375V26.2083C13.8749 25.3906 14.1998 24.6063 14.778 24.0281C15.3562 23.4499 16.1405 23.125 16.9583 23.125H20.0416C20.8593 23.125 21.6436 23.4499 22.2218 24.0281C22.8001 24.6063 23.1249 25.3906 23.1249 26.2083V32.375M16.9583 15.4167H20.0416M7.70825 27.75V18.5C7.70825 16.0467 8.6828 13.694 10.4175 11.9593C12.1522 10.2246 14.505 9.25 16.9583 9.25H20.0416C22.4948 9.25 24.8476 10.2246 26.5823 11.9593C28.317 13.694 29.2916 16.0467 29.2916 18.5V27.75C29.2916 28.9766 28.8043 30.153 27.937 31.0204C27.0696 31.8877 25.8932 32.375 24.6666 32.375H12.3333C11.1066 32.375 9.93024 31.8877 9.06288 31.0204C8.19553 30.153 7.70825 28.9766 7.70825 27.75Z" stroke="#272D37" stroke-width="2" stroke-linecap="round" stroke-linejoin="round"/>
</g>
<defs>
<clipPath id="clip0_1_8438">
<rect width="37" height="37" fill="white"/>
</clipPath>
</defs>
</svg>
