<svg width="38" height="37" viewBox="0 0 38 37" fill="none" xmlns="http://www.w3.org/2000/svg">
<g clip-path="url(#clip0_134_9853)">
<path d="M18.9535 4.625L5.18604 18.5H8.24547V29.2917C8.24547 30.1094 8.5678 30.8937 9.14155 31.4719C9.71531 32.0501 10.4935 32.375 11.3049 32.375H26.6021C27.4135 32.375 28.1916 32.0501 28.7654 31.4719C29.3392 30.8937 29.6615 30.1094 29.6615 29.2917V20.0417H34.2506M14.3643 32.375V23.125C14.3643 22.3072 14.6867 21.523 15.2604 20.9448C15.8342 20.3665 16.6123 20.0417 17.4238 20.0417H20.4832C21.2946 20.0417 22.0728 20.3665 22.6465 20.9448C23.2203 21.523 23.5426 22.3072 23.5426 23.125V32.375" stroke="#272D37" stroke-width="2" stroke-linecap="round" stroke-linejoin="round"/>
<path d="M22.7266 10.0208H23.4121M28.8964 3.80273V4.49363M34.3807 10.0208H35.0663M28.8964 15.5479V16.2388M24.509 5.59906L24.9888 6.08269M33.2839 5.59906L32.804 6.08269M32.804 13.9589L33.2839 14.4425M24.9888 13.9589L24.509 14.4425" stroke="#272D37" stroke-width="1.5" stroke-linecap="round" stroke-linejoin="round"/>
<path d="M26.0918 10.0208C26.0918 10.7705 26.3873 11.4894 26.9132 12.0194C27.4392 12.5495 28.1525 12.8472 28.8963 12.8472C29.6401 12.8472 30.3534 12.5495 30.8793 12.0194C31.4053 11.4894 31.7008 10.7705 31.7008 10.0208C31.7008 9.27124 31.4053 8.55234 30.8793 8.02229C30.3534 7.49224 29.6401 7.19446 28.8963 7.19446C28.1525 7.19446 27.4392 7.49224 26.9132 8.02229C26.3873 8.55234 26.0918 9.27124 26.0918 10.0208Z" fill="#272D37"/>
</g>
<defs>
<clipPath id="clip0_134_9853">
<rect width="36.7132" height="37" fill="white" transform="translate(0.59668)"/>
</clipPath>
</defs>
</svg>
