<svg width="18" height="19" viewBox="0 0 18 19" fill="none" xmlns="http://www.w3.org/2000/svg">
<path d="M14 8.85742V0.857422H4V4.85742H0V18.8574H8V14.8574H10V18.8574H18V8.85742H14ZM4 16.8574H2V14.8574H4V16.8574ZM4 12.8574H2V10.8574H4V12.8574ZM4 8.85742H2V6.85742H4V8.85742ZM8 12.8574H6V10.8574H8V12.8574ZM8 8.85742H6V6.85742H8V8.85742ZM8 4.85742H6V2.85742H8V4.85742ZM12 12.8574H10V10.8574H12V12.8574ZM12 8.85742H10V6.85742H12V8.85742ZM12 4.85742H10V2.85742H12V4.85742ZM16 16.8574H14V14.8574H16V16.8574ZM16 12.8574H14V10.8574H16V12.8574Z" fill="black"/>
</svg>
