<svg width="37" height="37" viewBox="0 0 37 37" fill="none" xmlns="http://www.w3.org/2000/svg">
<g clip-path="url(#clip0_134_9828)">
<path d="M3 14.3333L18 6L33 14.3333M10.8571 24.0556C11.8043 24.0556 12.7128 23.6897 13.3825 23.0386C14.0523 22.3874 14.4286 21.5042 14.4286 20.5833C14.4286 19.6624 14.0523 18.7793 13.3825 18.1281C12.7128 17.4769 11.8043 17.1111 10.8571 17.1111C9.90994 17.1111 9.00153 17.4769 8.33176 18.1281C7.66199 18.7793 7.28571 19.6624 7.28571 20.5833C7.28571 21.5042 7.66199 22.3874 8.33176 23.0386C9.00153 23.6897 9.90994 24.0556 10.8571 24.0556ZM10.8571 24.0556C12.941 24.0556 14.9395 24.7872 16.413 26.0895C17.8865 27.3919 18.7143 29.1582 18.7143 31C18.7143 29.1582 19.4668 27.3919 20.8064 26.0895C22.1459 24.7872 23.9627 24.0556 25.8571 24.0556C27.7515 24.0556 29.5684 24.7872 30.9079 26.0895C32.2475 27.3919 33 29.1582 33 31M10.8571 24.0556C8.7733 24.0556 6.7748 24.7872 5.3013 26.0895C3.8278 27.3919 3 29.1582 3 31M25.1429 24.0556C26.0901 24.0556 26.9985 23.6897 27.6682 23.0386C28.338 22.3874 28.7143 21.5042 28.7143 20.5833C28.7143 19.6624 28.338 18.7793 27.6682 18.1281C26.9985 17.4769 26.0901 17.1111 25.1429 17.1111C24.1957 17.1111 23.2872 17.4769 22.6175 18.1281C21.9477 18.7793 21.5714 19.6624 21.5714 20.5833C21.5714 21.5042 21.9477 22.3874 22.6175 23.0386C23.2872 23.6897 24.1957 24.0556 25.1429 24.0556Z" stroke="#6069E8" stroke-width="2" stroke-linecap="round" stroke-linejoin="round"/>
</g>
<defs>
<clipPath id="clip0_134_9828">
<rect width="36.7132" height="37" fill="white"/>
</clipPath>
</defs>
</svg>
