<svg width="33" height="32" viewBox="0 0 33 32" fill="none" xmlns="http://www.w3.org/2000/svg">
<path fill-rule="evenodd" clip-rule="evenodd" d="M23.4682 5.33337C24.4776 5.33337 25.3125 5.91204 25.9237 6.52004C26.56 7.15071 27.1435 7.99871 27.6621 8.93337C28.7033 10.808 29.6096 13.2574 30.2089 15.6774C30.8042 18.0787 31.1336 20.5867 30.9233 22.5587C30.7116 24.5387 29.6995 26.6667 27.4372 26.6667C25.4844 26.6667 23.9286 25.6534 22.6559 24.6254L22.1915 24.24L21.5406 23.6867L20.9532 23.196C19.605 22.096 18.4077 21.3334 16.8532 21.3334C15.2987 21.3334 14.1014 22.096 12.7532 23.196L12.1658 23.6867L11.5149 24.24L11.0519 24.6254C9.7765 25.6534 8.22065 26.6667 6.26923 26.6667C4.00558 26.6667 2.99349 24.5387 2.78313 22.5587C2.5741 20.5854 2.9022 18.0787 3.49755 15.676C4.09687 13.2574 5.00312 10.8094 6.04432 8.93204C6.56294 7.99871 7.14638 7.15071 7.78274 6.51871C8.39396 5.91204 9.22878 5.33337 10.2382 5.33337C10.9196 5.33337 11.585 5.49737 12.2399 5.69337L13.0231 5.93471C13.1541 5.97471 13.2838 6.01471 13.4134 6.05071C14.5578 6.38137 15.7287 6.66671 16.8532 6.66671C17.9778 6.66671 19.1486 6.38137 20.293 6.05071L21.4639 5.69471C22.1227 5.49871 22.7935 5.33337 23.4682 5.33337ZM23.4682 8.00004C22.9615 8.00004 22.4323 8.15471 21.919 8.32404L21.313 8.52537C21.2161 8.55716 21.1186 8.58738 21.0207 8.61604C19.8498 8.95204 18.3747 9.33337 16.8532 9.33337C15.3318 9.33337 13.8566 8.95204 12.6858 8.61604L12.3947 8.52537L11.7875 8.32404C11.2741 8.15337 10.7449 8.00004 10.2382 8.00004C9.68521 8.10404 9.18909 8.78004 8.81468 9.40671L8.60564 9.77337L8.35427 10.2347C7.45199 11.8587 6.62115 14.0747 6.06549 16.3227C5.5429 18.4254 5.28889 20.4387 5.38547 21.9374L5.41987 22.328L5.44633 22.5627L5.48602 22.84C5.5773 23.3747 5.77443 24 6.26923 24C7.3435 24 8.2405 23.4614 9.35578 22.568L9.88895 22.1307L10.8944 21.2827L11.3495 20.9094C12.7572 19.7854 14.5181 18.6667 16.8532 18.6667C19.1883 18.6667 20.9492 19.7867 22.3569 20.9094L22.8133 21.2827L23.8188 22.1307L24.3506 22.568C25.4659 23.4614 26.3616 24 27.4372 24C27.887 24 28.0907 23.484 28.1926 22.988L28.2429 22.6974L28.2918 22.2747C28.4546 20.7467 28.2032 18.588 27.6423 16.324C27.1316 14.2627 26.3907 12.228 25.5757 10.652L25.1008 9.77204L24.8917 9.40804C24.5173 8.78004 24.0212 8.10404 23.4682 8.00004ZM12.2227 10.6667C13.0999 10.6667 13.9412 11.0179 14.5615 11.643C15.1817 12.2681 15.5302 13.116 15.5302 14C15.5302 14.8841 15.1817 15.7319 14.5615 16.3571C13.9412 16.9822 13.0999 17.3334 12.2227 17.3334C11.3455 17.3334 10.5042 16.9822 9.88397 16.3571C9.26369 15.7319 8.91523 14.8841 8.91523 14C8.91523 13.116 9.26369 12.2681 9.88397 11.643C10.5042 11.0179 11.3455 10.6667 12.2227 10.6667ZM21.4837 10.6667C21.8077 10.6667 22.1205 10.7866 22.3627 11.0037C22.6048 11.2207 22.7595 11.5197 22.7974 11.844L22.8067 12V12.6667H23.4682C23.8054 12.6671 24.1297 12.7972 24.3749 13.0305C24.6201 13.2638 24.7677 13.5826 24.7875 13.9219C24.8072 14.2612 24.6977 14.5952 24.4813 14.8558C24.2648 15.1164 23.9578 15.2839 23.623 15.324L23.4682 15.3334H22.8067V16C22.8063 16.3399 22.6772 16.6667 22.4457 16.9139C22.2142 17.161 21.8979 17.3097 21.5612 17.3296C21.2246 17.3495 20.8931 17.2391 20.6346 17.021C20.376 16.8029 20.2098 16.4935 20.17 16.156L20.1607 16V15.3334H19.4992C19.162 15.333 18.8377 15.2029 18.5925 14.9696C18.3473 14.7363 18.1997 14.4174 18.1799 14.0782C18.1602 13.7389 18.2697 13.4049 18.4861 13.1443C18.7026 12.8837 19.0096 12.7162 19.3444 12.676L19.4992 12.6667H20.1607V12C20.1607 11.6464 20.3001 11.3073 20.5482 11.0572C20.7963 10.8072 21.1328 10.6667 21.4837 10.6667ZM12.2227 13.3334C12.0473 13.3334 11.879 13.4036 11.755 13.5286C11.6309 13.6537 11.5612 13.8232 11.5612 14C11.5612 14.1769 11.6309 14.3464 11.755 14.4714C11.879 14.5965 12.0473 14.6667 12.2227 14.6667C12.3982 14.6667 12.5664 14.5965 12.6905 14.4714C12.8145 14.3464 12.8842 14.1769 12.8842 14C12.8842 13.8232 12.8145 13.6537 12.6905 13.5286C12.5664 13.4036 12.3982 13.3334 12.2227 13.3334Z" fill="#272D37"/>
</svg>
