<svg width="24" height="25" viewBox="0 0 24 25" fill="none" xmlns="http://www.w3.org/2000/svg">
<path d="M12 6.85742V12.8569M12 12.8569L16 15.8574M12 12.8569C12 12.8572 11.9997 12.8567 12 12.8569ZM1.28533 15.3574C1.09868 14.5543 1 13.7174 1 12.8574C1 11.9975 1.09868 11.1606 1.28533 10.3574M10 2.0388C10.6486 1.91967 11.317 1.85742 12 1.85742C18.0751 1.85742 23 6.78229 23 12.8574C23 18.9326 18.0751 23.8574 12 23.8574C11.317 23.8574 10.6486 23.7952 10 23.676M6.5 3.32903C4.99963 4.19695 3.72328 5.40907 2.77893 6.85742M2.77893 18.8574C3.72328 20.3058 4.99963 21.5179 6.5 22.3858" stroke="#272D37" stroke-width="1.67" stroke-linecap="round"/>
</svg>
