<svg width="38" height="37" viewBox="0 0 38 37" fill="none" xmlns="http://www.w3.org/2000/svg">
<path d="M18.9535 4.625L5.18604 18.5H8.24547V29.2917C8.24547 30.1094 8.5678 30.8937 9.14155 31.4719C9.71531 32.0501 10.4935 32.375 11.3049 32.375H26.6021C27.4135 32.375 28.1916 32.0501 28.7654 31.4719C29.3392 30.8937 29.6615 30.1094 29.6615 29.2917V18.5H32.7209M14.3643 32.375V23.125C14.3643 22.3072 14.6867 21.523 15.2604 20.9448C15.8342 20.3665 16.6123 20.0417 17.4238 20.0417H20.4832C21.2946 20.0417 22.0728 20.3665 22.6465 20.9448C23.2203 21.523 23.5426 22.3072 23.5426 23.125V32.375" stroke="#272D37" stroke-width="2" stroke-linecap="round" stroke-linejoin="round"/>
<path d="M34.0728 9.36368C33.995 9.28514 33.8974 9.22942 33.7906 9.20251C33.6838 9.1756 33.5717 9.1785 33.4664 9.21092C32.7306 9.43471 31.9484 9.45323 31.2031 9.26451C30.4578 9.07579 29.7772 8.68688 29.2339 8.13923C28.6905 7.59158 28.3048 6.90569 28.1178 6.15461C27.9308 5.40354 27.9495 4.61542 28.1718 3.8742C28.2043 3.76804 28.2074 3.65497 28.1808 3.54716C28.1543 3.43936 28.099 3.34088 28.0211 3.26234C27.9431 3.18379 27.8454 3.12814 27.7384 3.10138C27.6314 3.07461 27.5192 3.07774 27.4138 3.11043C26.3073 3.45311 25.3363 4.13875 24.639 5.06976C24.0292 5.88643 23.6573 6.85816 23.5651 7.87593C23.4729 8.89369 23.664 9.91721 24.1169 10.8316C24.5699 11.7461 25.2668 12.5152 26.1294 13.0528C26.9921 13.5904 27.9863 13.8751 29.0006 13.875C30.1848 13.8785 31.3375 13.4906 32.2818 12.7706C33.2053 12.0673 33.8851 11.0884 34.2244 9.97317C34.2563 9.86726 34.259 9.75463 34.2323 9.64728C34.2056 9.53994 34.1505 9.44191 34.0728 9.36368Z" stroke="#272D37" stroke-width="2"/>
</svg>
