<svg width="37" height="37" viewBox="0 0 37 37" fill="none" xmlns="http://www.w3.org/2000/svg">
<g clip-path="url(#clip0_134_9831)">
<path d="M27 14.6842L16.5 4L3 17.7368H6V28.4211C6 29.2307 6.31607 30.0071 6.87868 30.5796C7.44129 31.1521 8.20435 31.4737 9 31.4737H20.25M12 31.4737V22.3158C12 21.5062 12.3161 20.7297 12.8787 20.1573C13.4413 19.5848 14.2044 19.2632 15 19.2632H18C18.9915 19.2632 19.872 19.7516 20.418 20.5071M29.25 26.8947C28.2554 26.8947 27.3016 27.3236 26.5983 28.0869C25.8951 28.8502 25.5 29.8854 25.5 30.9649V32.3216C25.5 32.5016 25.5658 32.6741 25.6831 32.8013C25.8003 32.9285 25.9592 33 26.125 33H32.375C32.5408 33 32.6997 32.9285 32.8169 32.8013C32.9342 32.6741 33 32.5016 33 32.3216V30.9649C33 29.8854 32.6049 28.8502 31.9017 28.0869C31.1984 27.3236 30.2446 26.8947 29.25 26.8947ZM29.25 26.8947C28.2554 26.8947 27.3016 26.4659 26.5983 25.7026C25.8951 24.9393 25.5 23.904 25.5 22.8246V21.4678C25.5 21.2879 25.5658 21.1154 25.6831 20.9882C25.8003 20.8609 25.9592 20.7895 26.125 20.7895H32.375C32.5408 20.7895 32.6997 20.8609 32.8169 20.9882C32.9342 21.1154 33 21.2879 33 21.4678V22.8246C33 23.904 32.6049 24.9393 31.9017 25.7026C31.1984 26.4659 30.2446 26.8947 29.25 26.8947Z" stroke="#272D37" stroke-width="2" stroke-linecap="round" stroke-linejoin="round"/>
</g>
<defs>
<clipPath id="clip0_134_9831">
<rect width="36.7132" height="37" fill="white"/>
</clipPath>
</defs>
</svg>
