<svg width="38" height="37" viewBox="0 0 38 37" fill="none" xmlns="http://www.w3.org/2000/svg">
<g clip-path="url(#clip0_1_8430)">
<path d="M7.72222 25.7692C7.72222 26.6261 8.06171 27.4478 8.66599 28.0537C9.27027 28.6596 10.0899 29 10.9444 29C11.799 29 12.6186 28.6596 13.2229 28.0537C13.8272 27.4478 14.1667 26.6261 14.1667 25.7692M7.72222 25.7692C7.72222 24.9124 8.06171 24.0906 8.66599 23.4847C9.27027 22.8788 10.0899 22.5385 10.9444 22.5385C11.799 22.5385 12.6186 22.8788 13.2229 23.4847C13.8272 24.0906 14.1667 24.9124 14.1667 25.7692M7.72222 25.7692H4.5V16.0769M14.1667 25.7692H23.8333M23.8333 25.7692C23.8333 26.6261 24.1728 27.4478 24.7771 28.0537C25.3814 28.6596 26.201 29 27.0556 29C27.9101 29 28.7297 28.6596 29.334 28.0537C29.9383 27.4478 30.2778 26.6261 30.2778 25.7692M23.8333 25.7692C23.8333 24.9124 24.1728 24.0906 24.7771 23.4847C25.3814 22.8788 26.201 22.5385 27.0556 22.5385C27.9101 22.5385 28.7297 22.8788 29.334 23.4847C29.9383 24.0906 30.2778 24.9124 30.2778 25.7692M30.2778 25.7692H33.5V19.3077C33.5 18.4508 33.1605 17.6291 32.5562 17.0232C31.9519 16.4173 31.1324 16.0769 30.2778 16.0769H28.6667M4.5 16.0769L7.72222 8H22.2222L28.6667 16.0769M4.5 16.0769H28.6667M19 16.0769V8" stroke="#272D37" stroke-width="2" stroke-linecap="round" stroke-linejoin="round"/>
</g>
<defs>
<clipPath id="clip0_1_8430">
<rect width="37" height="37" fill="white" transform="translate(0.5)"/>
</clipPath>
</defs>
</svg>
