<svg width="38" height="37" viewBox="0 0 38 37" fill="none" xmlns="http://www.w3.org/2000/svg">
<g clip-path="url(#clip0_1_8434)">
<path d="M4.5 20.1C4.5 20.1 9.1662 23.4 18.5 23.4C27.8338 23.4 32.5 20.1 32.5 20.1M4.5 13.5C4.5 13.5 9.1662 16.8 18.5 16.8C27.8338 16.8 32.5 13.5 32.5 13.5M4.5 11.3847C4.5 11.3847 6.8338 8 18.5 8C30.1662 8 32.5 11.3847 32.5 11.3847V26.6153C32.5 26.6153 30.1662 30 18.5 30C6.8338 30 4.5 26.6153 4.5 26.6153V11.3847Z" stroke="#272D37" stroke-width="2"/>
</g>
<defs>
<clipPath id="clip0_1_8434">
<rect width="37" height="37" fill="white" transform="translate(0.5)"/>
</clipPath>
</defs>
</svg>
