<svg width="24" height="25" viewBox="0 0 24 25" fill="none" xmlns="http://www.w3.org/2000/svg">
<g clip-path="url(#clip0_7150_8953)">
<path d="M7 9.85742C8.10457 9.85742 9 8.96199 9 7.85742C9 6.75285 8.10457 5.85742 7 5.85742C5.89543 5.85742 5 6.75285 5 7.85742C5 8.96199 5.89543 9.85742 7 9.85742Z" fill="black"/>
<path d="M19 14.8574H20H21V19.8574C21 20.4051 20.5477 20.8574 20 20.8574H19V21.8574H5V20.8574H4C3.45228 20.8574 3 20.4051 3 19.8574V14.8574H5H6V13.8574V13.1074C6 12.4226 6.55037 11.8652 7.24403 11.8574C7.43902 11.858 7.62896 11.9027 7.80444 11.9876L7.81266 11.9916L7.82094 11.9954C7.97063 12.0645 8.09734 12.1576 8.18837 12.2582C8.1884 12.2583 8.18843 12.2583 8.18846 12.2583L9.5879 13.8077L9.58784 13.8078L9.59624 13.8168C9.89009 14.1342 10.2131 14.4223 10.5765 14.6767L10.8348 14.8574H11.15H18H19ZM14.42 5.85321L14.4192 5.85242L14.6271 5.64453L15.8771 4.39453C16.1392 4.13247 16.4725 3.95768 16.8304 3.88951C16.4698 3.95823 16.1387 4.13448 15.8829 4.39031L14.6329 5.64031L14.42 5.85321Z" fill="black" stroke="black" stroke-width="2"/>
</g>
<defs>
<clipPath id="clip0_7150_8953">
<rect width="24" height="24" fill="white" transform="translate(0 0.857422)"/>
</clipPath>
</defs>
</svg>
